<!DOCTYPE svg PUBLIC "-//W3C//DTD SVG 1.1//EN" "http://www.w3.org/Graphics/SVG/1.1/DTD/svg11.dtd">
<!-- Uploaded to: SVG Repo, www.svgrepo.com, Transformed by: SVG Repo Mixer Tools -->
<svg fill="#000000" height="800px" width="800px" version="1.1" id="Layer_1" xmlns="http://www.w3.org/2000/svg" xmlns:xlink="http://www.w3.org/1999/xlink" viewBox="0 0 512 512" xml:space="preserve" stroke="#000000" stroke-width="4.608" transform="rotate(45)">
<g id="SVGRepo_bgCarrier" stroke-width="0"/>
<g id="SVGRepo_tracerCarrier" stroke-linecap="round" stroke-linejoin="round"/>
<g id="SVGRepo_iconCarrier"> <g> <g> <path d="M257.5,33.884h-3.001c-34.904,0-63.3,28.397-63.3,63.3v120.762c0,34.904,28.397,63.3,63.3,63.3h3.001 c34.904,0,63.3-28.397,63.3-63.3V97.184C320.8,62.28,292.404,33.884,257.5,33.884z M303.501,217.946 c-0.001,25.364-20.636,46-46,46H254.5c-25.365,0-46-20.636-46-46V97.184c0-25.365,20.636-46,46-46h3.001c25.365,0,46,20.636,46,46 V217.946z"/> </g> </g> <g> <g> <path d="M256.001,0c-55.274,0-100.244,44.969-100.244,100.244v114.642c0,35.293,18.029,67.324,48.227,85.684 c11.81,7.181,19.146,20.344,19.146,34.355V479.13c0,18.125,14.745,32.87,32.87,32.87s32.87-14.745,32.87-32.87v-96.265 c0-4.777-3.873-8.65-8.65-8.65c-4.777,0-8.65,3.873-8.65,8.65v96.265c0,8.585-6.985,15.57-15.57,15.57s-15.57-6.985-15.57-15.57 V334.924c0-20.011-10.522-38.839-27.46-49.137c-24.992-15.195-39.914-41.701-39.914-70.902V100.244 c0-45.735,37.209-82.944,82.944-82.944c45.735,0,82.944,37.209,82.944,82.944v114.642c0,29.201-14.922,55.706-39.915,70.901 c-16.938,10.298-27.46,29.126-27.46,49.137c0,4.777,3.873,8.65,8.65,8.65c4.777,0,8.65-3.873,8.65-8.65 c0-14.011,7.336-27.176,19.146-34.355c30.199-18.36,48.227-50.391,48.227-85.683V100.244C356.244,44.969,311.275,0,256.001,0z"/> </g> </g> <g> <g> <circle cx="256.004" cy="72.643" r="8.65"/> </g> </g> <g> <g> <circle cx="240.526" cy="97.733" r="8.65"/> </g> </g> <g> <g> <circle cx="226.398" cy="126.854" r="8.65"/> </g> </g> <g> <g> <circle cx="256.004" cy="126.854" r="8.65"/> </g> </g> <g> <g> <circle cx="286.371" cy="126.854" r="8.65"/> </g> </g> <g> <g> <circle cx="226.398" cy="183.748" r="8.65"/> </g> </g> <g> <g> <circle cx="256.004" cy="183.748" r="8.65"/> </g> </g> <g> <g> <circle cx="256.004" cy="240.745" r="8.65"/> </g> </g> <g> <g> <circle cx="286.371" cy="183.748" r="8.65"/> </g> </g> <g> <g> <circle cx="271.378" cy="97.733" r="8.65"/> </g> </g> <g> <g> <circle cx="240.526" cy="155.976" r="8.65"/> </g> </g> <g> <g> <circle cx="271.378" cy="155.976" r="8.65"/> </g> </g> <g> <g> <circle cx="240.526" cy="213.169" r="8.65"/> </g> </g> <g> <g> <circle cx="271.378" cy="213.169" r="8.65"/> </g> </g> </g>
</svg>