<!DOCTYPE svg PUBLIC "-//W3C//DTD SVG 1.1//EN" "http://www.w3.org/Graphics/SVG/1.1/DTD/svg11.dtd">
<!-- Uploaded to: SVG Repo, www.svgrepo.com, Transformed by: SVG Repo Mixer Tools -->
<svg fill="#000000" height="800px" width="800px" version="1.1" id="Layer_1" xmlns="http://www.w3.org/2000/svg" xmlns:xlink="http://www.w3.org/1999/xlink" viewBox="0 0 512 512" xml:space="preserve" stroke="#000000" stroke-width="6.656000000000001" transform="rotate(0)">
<g id="SVGRepo_bgCarrier" stroke-width="0"/>
<g id="SVGRepo_tracerCarrier" stroke-linecap="round" stroke-linejoin="round"/>
<g id="SVGRepo_iconCarrier"> <g> <g> <g> <path d="M414.575,0H97.424C71.322,0,50.086,21.236,50.086,47.338v172.455c0,26.103,21.236,47.338,47.338,47.338h108.978 l-10.284,188.562c-0.874,13.765,3.974,27.028,13.654,37.356C221.06,505.092,237.91,512,255.999,512 c18.089-0.001,34.941-6.909,46.229-18.954c9.68-10.327,14.527-23.592,13.653-37.357L305.598,267.13h108.978 c26.102,0,47.338-21.235,47.338-47.337V47.338C461.912,21.236,440.677,0,414.575,0z M285.988,477.823 c-7.098,7.573-18.028,11.916-29.989,11.916s-22.89-4.342-29.988-11.915c-3.849-4.106-8.306-11.041-7.676-20.756 c0.002-0.038,0.004-0.076,0.007-0.114l10.352-189.824h54.608l10.354,189.824c0.002,0.037,0.004,0.075,0.007,0.114 C294.293,466.783,289.837,473.717,285.988,477.823z M439.652,219.794c0,13.827-11.25,25.076-25.077,25.076H97.424 c-13.827,0-25.077-11.248-25.077-25.076V47.338c0-13.827,11.25-25.077,25.077-25.077h317.151 c13.827,0,25.077,11.25,25.077,25.077V219.794z"/> <path d="M122.546,53.458c-2.927,0-5.799,1.191-7.869,3.262c-2.07,2.069-3.261,4.941-3.261,7.868c0,2.928,1.191,5.8,3.261,7.869 c2.07,2.07,4.942,3.261,7.869,3.261s5.799-1.19,7.869-3.261c2.07-2.069,3.261-4.941,3.261-7.869c0-2.927-1.191-5.799-3.261-7.868 C128.344,54.65,125.473,53.458,122.546,53.458z"/> <path d="M300.488,53.458c-6.155,0-11.13,4.986-11.13,11.13c0,6.145,4.975,11.13,11.13,11.13c6.144,0,11.13-4.985,11.13-11.13 C311.618,58.446,306.632,53.458,300.488,53.458z"/> <path d="M211.511,53.458c-6.144,0-11.13,4.986-11.13,11.13c0,6.145,4.986,11.13,11.13,11.13c6.155,0,11.13-4.985,11.13-11.13 C222.642,58.446,217.666,53.458,211.511,53.458z"/> <path d="M167.023,53.458c-6.144,0-11.119,4.986-11.119,11.13c0,6.145,4.975,11.13,11.119,11.13 c6.155,0,11.142-4.985,11.142-11.13C178.164,58.446,173.178,53.458,167.023,53.458z"/> <path d="M255.999,53.458c-6.144,0-11.13,4.986-11.13,11.13c0,6.145,4.986,11.13,11.13,11.13s11.13-4.985,11.13-11.13 C267.13,58.446,262.143,53.458,255.999,53.458z"/> <path d="M344.976,75.719c6.144,0,11.119-4.985,11.119-11.13c0-6.144-4.975-11.13-11.119-11.13 c-6.155,0-11.142,4.986-11.142,11.13C333.835,70.734,338.821,75.719,344.976,75.719z"/> <path d="M389.453,53.458c-2.927,0-5.788,1.191-7.869,3.262c-2.07,2.069-3.261,4.941-3.261,7.868c0,2.928,1.191,5.8,3.261,7.869 c2.07,2.07,4.942,3.261,7.869,3.261c2.938,0,5.799-1.19,7.869-3.261c2.081-2.069,3.261-4.941,3.261-7.869 c0-2.927-1.18-5.799-3.261-7.868C395.252,54.65,392.381,53.458,389.453,53.458z"/> <path d="M122.546,100.206c-2.927,0-5.799,1.191-7.869,3.262c-2.07,2.069-3.261,4.941-3.261,7.868c0,2.928,1.191,5.8,3.261,7.869 c2.07,2.07,4.942,3.261,7.869,3.261s5.799-1.19,7.869-3.261c2.07-2.069,3.261-4.941,3.261-7.869c0-2.927-1.191-5.799-3.261-7.868 C128.333,101.398,125.473,100.206,122.546,100.206z"/> <path d="M211.511,100.206c-6.144,0-11.13,4.986-11.13,11.13c0,6.145,4.986,11.13,11.13,11.13c6.155,0,11.13-4.985,11.13-11.13 C222.642,105.194,217.666,100.206,211.511,100.206z"/> <path d="M255.999,100.206c-6.144,0-11.13,4.986-11.13,11.13c0,6.145,4.986,11.13,11.13,11.13s11.13-4.985,11.13-11.13 C267.13,105.194,262.143,100.206,255.999,100.206z"/> <path d="M167.023,100.206c-6.144,0-11.13,4.986-11.13,11.13c0,6.145,4.986,11.13,11.13,11.13c6.155,0,11.142-4.985,11.142-11.13 C178.164,105.194,173.178,100.206,167.023,100.206z"/> <path d="M300.488,100.206c-6.155,0-11.13,4.986-11.13,11.13c0,6.145,4.975,11.13,11.13,11.13c6.144,0,11.13-4.985,11.13-11.13 C311.618,105.194,306.632,100.206,300.488,100.206z"/> <path d="M344.976,100.206c-6.155,0-11.13,4.986-11.13,11.13c0,6.145,4.975,11.13,11.13,11.13c6.144,0,11.119-4.985,11.119-11.13 C356.095,105.194,351.12,100.206,344.976,100.206z"/> <path d="M389.453,100.206c-2.927,0-5.799,1.191-7.869,3.262c-2.07,2.069-3.261,4.941-3.261,7.868c0,2.928,1.191,5.8,3.261,7.869 c2.07,2.07,4.942,3.261,7.869,3.261c2.938,0,5.799-1.19,7.869-3.261c2.081-2.069,3.261-4.941,3.261-7.869 c0-2.927-1.18-5.799-3.261-7.868C395.252,101.398,392.392,100.206,389.453,100.206z"/> <path d="M122.546,146.954c-2.927,0-5.799,1.191-7.869,3.262c-2.07,2.069-3.261,4.941-3.261,7.868c0,2.928,1.191,5.8,3.261,7.869 c2.07,2.07,4.942,3.261,7.869,3.261s5.799-1.19,7.869-3.261c2.07-2.069,3.261-4.941,3.261-7.869c0-2.927-1.191-5.799-3.261-7.868 C128.344,148.146,125.473,146.954,122.546,146.954z"/> <path d="M167.034,169.215c6.144,0,11.119-4.985,11.119-11.13c0-6.144-4.975-11.13-11.119-11.13c-6.155,0-11.13,4.986-11.13,11.13 C155.903,164.23,160.879,169.215,167.034,169.215z"/> <path d="M211.511,146.954c-6.144,0-11.13,4.986-11.13,11.13c0,6.145,4.986,11.13,11.13,11.13s11.13-4.985,11.13-11.13 C222.642,151.942,217.655,146.954,211.511,146.954z"/> <path d="M255.999,146.954c-6.144,0-11.13,4.986-11.13,11.13c0,6.145,4.986,11.13,11.13,11.13s11.13-4.985,11.13-11.13 C267.13,151.942,262.143,146.954,255.999,146.954z"/> <path d="M300.488,146.954c-6.144,0-11.13,4.986-11.13,11.13c0,6.145,4.986,11.13,11.13,11.13s11.13-4.985,11.13-11.13 C311.618,151.942,306.632,146.954,300.488,146.954z"/> <path d="M344.965,146.954c-6.144,0-11.13,4.986-11.13,11.13c0,6.145,4.986,11.13,11.13,11.13c6.155,0,11.142-4.985,11.142-11.13 C356.107,151.942,351.12,146.954,344.965,146.954z"/> <path d="M389.453,146.954c-2.927,0-5.799,1.191-7.869,3.262c-2.07,2.069-3.261,4.941-3.261,7.868c0,2.928,1.191,5.8,3.261,7.869 c2.07,2.07,4.942,3.261,7.869,3.261s5.799-1.19,7.869-3.261c2.081-2.069,3.261-4.941,3.261-7.869c0-2.927-1.18-5.799-3.261-7.868 C395.252,148.146,392.381,146.954,389.453,146.954z"/> <path d="M122.546,193.702c-2.938,0-5.799,1.191-7.869,3.262c-2.081,2.069-3.261,4.941-3.261,7.868c0,2.928,1.18,5.8,3.261,7.869 c2.07,2.07,4.931,3.261,7.869,3.261c2.927,0,5.799-1.19,7.869-3.261c2.07-2.069,3.261-4.941,3.261-7.869 c0-2.927-1.191-5.799-3.261-7.868C128.344,194.894,125.473,193.702,122.546,193.702z"/> <path d="M211.511,193.702c-6.144,0-11.13,4.986-11.13,11.13c0,6.145,4.986,11.13,11.13,11.13c6.155,0,11.13-4.985,11.13-11.13 C222.642,198.689,217.666,193.702,211.511,193.702z"/> <path d="M255.999,193.702c-6.144,0-11.13,4.986-11.13,11.13c0,6.145,4.986,11.13,11.13,11.13s11.13-4.985,11.13-11.13 C267.13,198.689,262.143,193.702,255.999,193.702z"/> <path d="M167.034,193.702c-6.155,0-11.13,4.986-11.13,11.13c0,6.145,4.975,11.13,11.13,11.13c6.144,0,11.13-4.985,11.13-11.13 C178.164,198.689,173.178,193.702,167.034,193.702z"/> <path d="M300.488,193.702c-6.155,0-11.13,4.986-11.13,11.13c0,6.145,4.975,11.13,11.13,11.13c6.144,0,11.13-4.985,11.13-11.13 C311.618,198.689,306.632,193.702,300.488,193.702z"/> <path d="M344.976,193.702c-6.155,0-11.13,4.986-11.13,11.13c0,6.145,4.975,11.13,11.13,11.13c6.144,0,11.13-4.985,11.13-11.13 C356.107,198.689,351.12,193.702,344.976,193.702z"/> <path d="M389.453,193.702c-2.927,0-5.799,1.191-7.869,3.262c-2.07,2.069-3.261,4.941-3.261,7.868c0,2.928,1.191,5.8,3.261,7.869 c2.07,2.07,4.942,3.261,7.869,3.261c2.938,0,5.799-1.19,7.869-3.261c2.081-2.069,3.261-4.941,3.261-7.869 c0-2.927-1.18-5.799-3.261-7.868C395.252,194.894,392.392,193.702,389.453,193.702z"/> </g> </g> </g> </g>
</svg>