<svg width="667" height="667" viewBox="0 0 667 667" fill="none" xmlns="http://www.w3.org/2000/svg">
<path fill-rule="evenodd" clip-rule="evenodd" d="M466.667 200H200C181.667 200 166.833 215 166.833 233.333L166.667 433.333C166.667 451.667 181.667 466.667 200 466.667H466.667C485 466.667 500 451.667 500 433.333V233.333C500 215 485 200 466.667 200ZM200 266.666L333.333 350L466.667 266.666V433.333H200V266.666ZM200 233.334L333.333 316.667L466.667 233.334H200Z" fill="#3D483D"/>
<path fill-rule="evenodd" clip-rule="evenodd" d="M333.333 666.667C517.427 666.667 666.667 517.427 666.667 333.333C666.667 149.238 517.427 0 333.333 0C149.238 0 0 149.238 0 333.333C0 517.427 149.238 666.667 333.333 666.667ZM333.333 600C480.61 600 600 480.61 600 333.333C600 186.057 480.61 66.6667 333.333 66.6667C186.057 66.6667 66.6667 186.057 66.6667 333.333C66.6667 480.61 186.057 600 333.333 600Z" fill="#3D483D"/>
</svg>
