<svg width="600" height="800" viewBox="0 0 600 800" fill="none" xmlns="http://www.w3.org/2000/svg">
<path fill-rule="evenodd" clip-rule="evenodd" d="M300 225C258.575 225 225 258.575 225 300C225 341.425 258.575 375 300 375C341.425 375 375 341.425 375 300C375 258.575 341.425 225 300 225ZM300 425C230.975 425 175 369.05 175 300C175 230.95 230.975 175 300 175C369.025 175 425 230.95 425 300C425 369.05 369.025 425 300 425ZM300 0C134.325 0 0 134.325 0 300C0 425.45 250.125 800.275 300 800C349.1 800.275 600 423.75 600 300C600 134.325 465.675 0 300 0Z" fill="#3D483D"/>
</svg>
