<svg width="704" height="674" viewBox="0 0 704 674" fill="none" xmlns="http://www.w3.org/2000/svg">
<path fill-rule="evenodd" clip-rule="evenodd" d="M230.201 218.857C234.315 274.032 209.898 320.812 175.655 323.374C141.41 325.936 110.311 283.298 106.195 228.134C102.077 172.969 126.495 126.183 160.739 123.623C194.981 121.067 226.079 163.705 230.201 218.857Z" fill="#3D483D"/>
<path fill-rule="evenodd" clip-rule="evenodd" d="M520.963 324.686C482.344 364.307 470.98 415.837 495.567 439.813C520.153 463.788 571.38 451.114 609.997 411.503C648.608 371.89 659.975 320.354 635.389 296.382C610.803 272.413 559.572 285.086 520.963 324.686Z" fill="#3D483D"/>
<path fill-rule="evenodd" clip-rule="evenodd" d="M389.805 169.367C382.265 224.162 348.574 264.783 314.554 260.105C280.54 255.419 259.078 207.201 266.619 152.411C274.161 97.6186 307.852 56.9956 341.869 61.6794C375.886 66.3604 397.348 114.574 389.805 169.367Z" fill="#3D483D"/>
<path fill-rule="evenodd" clip-rule="evenodd" d="M429.71 183.94C400.275 230.765 399.959 283.539 429.028 301.813C458.095 320.097 505.528 296.954 534.97 250.133C564.414 203.311 564.719 150.537 535.648 132.258C506.579 113.98 459.148 137.116 429.71 183.94Z" fill="#3D483D"/>
<path fill-rule="evenodd" clip-rule="evenodd" d="M288.508 324.841C275.97 335.336 224.276 366.366 194.136 372.402C163.998 378.438 125.42 389.299 112.174 441.656C98.9222 494.021 142.85 534.486 177.644 544.979C212.436 555.482 279.008 572.604 322.591 595.671C366.171 618.737 425.853 635.001 457.015 591.591C488.178 548.181 469.05 506.335 451.737 480.24C434.422 454.155 413.907 387.509 410.458 359.085C407.008 330.672 361.006 264.189 288.508 324.841Z" fill="#3D483D"/>
</svg>
