<svg width="650" height="650" viewBox="0 0 650 650" fill="none" xmlns="http://www.w3.org/2000/svg">
<path d="M408.334 141.669C432.907 146.463 457.297 157.3 475.001 175.002C492.704 192.705 503.541 217.097 508.334 241.669M425.001 25.0022C476.051 30.6735 521.991 55.3712 558.334 91.6689C594.677 127.967 619.264 173.959 625.001 225.002M624.984 474.226V564.549C625.124 599.079 594.077 627.912 559.217 624.766C258.337 625.002 25.0025 389.502 25.2382 90.6419C22.0985 55.9672 50.7885 25.0375 85.2728 25.0052H175.778C190.418 24.8612 204.612 30.0355 215.713 39.5635C247.274 66.6519 267.574 158.595 259.764 195.145C253.665 223.681 224.899 243.645 205.343 263.162C248.289 338.542 310.824 400.952 386.351 443.816C405.907 424.296 425.914 395.589 454.504 389.502C491.184 381.696 583.717 402.022 610.697 433.802C620.267 445.072 625.351 459.459 624.984 474.226Z" stroke="#3D483D" stroke-width="50" stroke-linecap="round" stroke-linejoin="round"/>
</svg>
