<!DOCTYPE svg PUBLIC "-//W3C//DTD SVG 1.1//EN" "http://www.w3.org/Graphics/SVG/1.1/DTD/svg11.dtd">
<!-- Uploaded to: SVG Repo, www.svgrepo.com, Transformed by: SVG Repo Mixer Tools -->
<svg width="800px" height="800px" viewBox="0 0 24 24" xmlns="http://www.w3.org/2000/svg" fill="#000000">
<g id="SVGRepo_bgCarrier" stroke-width="0"/>
<g id="SVGRepo_tracerCarrier" stroke-linecap="round" stroke-linejoin="round"/>
<g id="SVGRepo_iconCarrier"> <path fill="none" stroke="#000000" stroke-width="2" d="M12,22 C13.5,22 16,21 16,16.5 C16,12 12,6 12,6 C12,6 8,12 8,16.5 C8,21 10.5,22 12,22 Z M12,22 C10.5,22 9.04678627,21.7792414 7,20.5 C3,18 2.5,10 2.5,10 C2.5,10 7,10.5 9,12 M12,22 C13.5,22 14.9532137,21.7792414 17,20.5 C21,18 21.5,10 21.5,10 C21.5,10 17,10.5 15,12"/> </g>
</svg>